<svg xmlns="http://www.w3.org/2000/svg" viewBox="0 0 500 500" 
        style="stroke: white; width: 100%; height: 100%; transform: translate3d(0px, 0px, 0px);" preserveAspectRatio="xMidYMid meet">
        <defs>
          <clipPath id="__lottie_element_2">
            <rect width="500" height="500" x="0" y="0"></rect>
          </clipPath>
          <filter id="__lottie_element_28" filterUnits="objectBoundingBox" x="0%" y="0%" width="100%" height="100%">
            <feComponentTransfer in="SourceGraphic">
              <feFuncA type="table" tableValues="1.0 0.0"></feFuncA>
            </feComponentTransfer>
          </filter>
          <mask id="__lottie_element_27" mask-type="alpha">
            <g filter="url(#__lottie_element_28)">
              <rect width="500" height="500" x="0" y="0" fill="#ffffff" opacity="0"></rect>
              <g style="display: block;" transform="matrix(1,0,0,1,250,250)" opacity="1">
                <g opacity="1" transform="matrix(1,0,0,1,0,0)">
                  <path fill="rgb(255,0,0)" fill-opacity="1"
                    d=" M-1.940000057220459,-157 C-1.940000057220459,-157 1.940000057220459,-157 1.940000057220459,-157 C35.67399978637695,-157 62.6870002746582,-129.031005859375 61.513999938964844,-95.31800079345703 C61.513999938964844,-95.31800079345703 59.57400131225586,-39.5369987487793 59.57400131225586,-39.5369987487793 C58.45800018310547,-7.441999912261963 32.1150016784668,18 0,18 C0,18 0,18 0,18 C-32.1150016784668,18 -58.45800018310547,-7.441999912261963 -59.57400131225586,-39.5369987487793 C-59.57400131225586,-39.5369987487793 -61.513999938964844,-95.31800079345703 -61.513999938964844,-95.31800079345703 C-62.6870002746582,-129.031005859375 -35.67399978637695,-157 -1.940000057220459,-157z">
                  </path>
                </g>
              </g>
            </g>
          </mask>
        </defs>
        <g clip-path="url(#__lottie_element_2)">
          <g style="display: block;" transform="matrix(1,0,0,1,248.3280029296875,361.2669982910156)" opacity="1">
            <g opacity="1" transform="matrix(1,0,0,1,0,0)">
              <path stroke-linecap="round" stroke-linejoin="round" fill-opacity="0" stroke="rgb(47,128,232)"
                stroke-opacity="1" stroke-width="9.632"
                d=" M11,-16.211000442504883 C11,-16.211000442504883 -11,0 -11,0 C-11,0 11,16.211000442504883 11,16.211000442504883">
              </path>
            </g>
          </g>
          <g style="display: block;" transform="matrix(1,0,0,1,332.5740051269531,361.2669982910156)" opacity="1">
            <g opacity="1" transform="matrix(1,0,0,1,0,0)">
              <path stroke-linecap="round" stroke-linejoin="round" fill-opacity="0" stroke="rgb(47,128,232)"
                stroke-opacity="1" stroke-width="9.632"
                d=" M-11,-16.211000442504883 C-11,-16.211000442504883 11,0 11,0 C11,0 -11,16.211000442504883 -11,16.211000442504883">
              </path>
            </g>
          </g>
          <g style="display: block;" transform="matrix(1,0,0,1,290.208984375,361.2669982910156)" opacity="1">
            <g opacity="1" transform="matrix(1,0,0,1,0,0)">
              <path stroke-linecap="round" stroke-linejoin="round" fill-opacity="0" stroke="rgb(47,128,232)"
                stroke-opacity="1" stroke-width="9.632"
                d=" M5.251999855041504,-16.211000442504883 C5.251999855041504,-16.211000442504883 -5.251999855041504,16.211000442504883 -5.251999855041504,16.211000442504883">
              </path>
            </g>
          </g>
          <g style="display: block;" mask="url(#__lottie_element_27)">
            <g transform="matrix(1,0,0,1,250,250)" opacity="1">
              <g opacity="1" transform="matrix(1,0,0,1,0,0)">
                <path stroke-linecap="round" stroke-linejoin="round" fill-opacity="0" stroke-opacity="1"
                  stroke-width="9.632"
                  d=" M33.869998931884766,7.84499979019165 C33.869998931884766,7.84499979019165 33.869998931884766,26.78499984741211 33.869998931884766,26.78499984741211 C33.869998931884766,45.415000915527344 18.6200008392334,60.654998779296875 -0.009999999776482582,60.654998779296875 C-18.639999389648438,60.654998779296875 -33.880001068115234,45.415000915527344 -33.880001068115234,26.78499984741211 C-33.880001068115234,26.78499984741211 -33.880001068115234,7.855000019073486 -33.880001068115234,7.855000019073486">
                </path>
              </g>
            </g>
          </g>
          <g style="display: block;" transform="matrix(1,0,0,1,250,250)" opacity="1">
            <g opacity="1" transform="matrix(1,0,0,1,0,0)">
              <path stroke-linecap="round" stroke-linejoin="round" fill-opacity="0" stroke-opacity="1"
                stroke-width="9.632"
                d=" M33.880001068115234,26.690000534057617 C33.880001068115234,26.690000534057617 41.5,26.690000534057617 41.5,26.690000534057617 C87.33999633789062,26.690000534057617 124.5,63.849998474121094 124.5,109.69000244140625 C124.5,109.69000244140625 124.5,137.4499969482422 124.5,137.4499969482422 C124.5,145.07000732421875 118.79000091552734,151.47999572753906 111.22000122070312,152.35000610351562 C111.22000122070312,152.35000610351562 82.18000030517578,155.7100067138672 82.18000030517578,155.7100067138672 C74.23999786376953,156.6300048828125 66.4800033569336,158.66000366210938 59.11000061035156,161.74000549316406 C40.20000076293945,169.64999389648438 20.110000610351562,173.6199951171875 0,173.66000366210938 C-0.10000000149011612,173.66000366210938 -0.20000000298023224,173.66000366210938 -0.30000001192092896,173.66000366210938 C-20.399999618530273,173.66000366210938 -40.5,169.72999572753906 -59.41999816894531,161.86000061035156 C-59.41999816894531,161.86000061035156 -59.619998931884766,161.77999877929688 -59.619998931884766,161.77999877929688 C-67.30999755859375,158.5800018310547 -75.41000366210938,156.47999572753906 -83.69000244140625,155.52000427246094 C-83.69000244140625,155.52000427246094 -111.22000122070312,152.35000610351562 -111.22000122070312,152.35000610351562 C-118.79000091552734,151.47999572753906 -124.5,145.07000732421875 -124.5,137.4499969482422 C-124.5,137.4499969482422 -124.5,109.69000244140625 -124.5,109.69000244140625 C-124.5,63.849998474121094 -87.33999633789062,26.690000534057617 -41.5,26.690000534057617 C-41.5,26.690000534057617 -33.869998931884766,26.690000534057617 -33.869998931884766,26.690000534057617">
              </path>
            </g>
          </g>
          <g style="display: block;" transform="matrix(1,0,0,1,250,250)" opacity="1">
            <g opacity="1" transform="matrix(1,0,0,1,0,0)">
              <path stroke-linecap="round" stroke-linejoin="round" fill-opacity="0" stroke-opacity="1"
                stroke-width="9.632"
                d=" M60.89799880981445,-76.63200378417969 C60.89799880981445,-76.63200378417969 59.57400131225586,-39.5369987487793 59.57400131225586,-39.5369987487793 C58.45800018310547,-7.441999912261963 32.1150016784668,18 0,18 C0,18 0,18 0,18 C-32.1150016784668,18 -58.45800018310547,-7.441999912261963 -59.57400131225586,-39.5369987487793 C-59.57400131225586,-39.5369987487793 -60.64400100708008,-79.66200256347656 -60.64400100708008,-79.66200256347656">
              </path>
            </g>
          </g>
          <g style="display: block;" transform="matrix(1,0,0,1,246.1409912109375,124.68699645996094)" opacity="1">
            <g opacity="1" transform="matrix(1,0,0,1,0,0)">
              <path stroke-linecap="round" stroke-linejoin="round" fill-opacity="0" stroke="rgb(47,128,232)"
                stroke-opacity="1" stroke-width="9.632"
                d=" M-57.090999603271484,46.053001403808594 C-18.01099967956543,44.42300033569336 13.189000129699707,20.113000869750977 27.73900032043457,-14.04699993133545 C60.5260009765625,9.312999725341797 58.76499938964844,29.77400016784668 64.69499969482422,49.48400115966797 C79.07499694824219,29.83799934387207 76.25599670410156,-9.26200008392334 66.19200134277344,-24.687000274658203 C57.816001892089844,-37.525001525878906 42.5260009765625,-41.6870002746582 42.5260009765625,-41.6870002746582 C20.733999252319336,-46.97100067138672 -1.555999994277954,-39.14400100708008 -12.609000205993652,-34.185001373291016 C-17.201000213623047,-32.125 -22.533000946044922,-32.63199996948242 -26.628999710083008,-35.55500030517578 C-26.628999710083008,-35.55500030517578 -42.507999420166016,-46.88600158691406 -42.507999420166016,-46.88600158691406 C-48.441001892089844,-51.31399917602539 -56.856998443603516,-49.9379997253418 -61.071998596191406,-43.85300064086914 C-66.46600341796875,-36.06700134277344 -71.79399871826172,-24.406999588012695 -73.89099884033203,-10.437000274658203 C-78.82599639892578,22.43899917602539 -56.98400115966797,45.941001892089844 -56.98400115966797,45.941001892089844">
              </path>
            </g>
          </g>
          <g style="display: block;" transform="matrix(1,0,0,1,212.80299377441406,184.5260009765625)" opacity="1">
            <g opacity="1" transform="matrix(1,0,0,1,0,0)">
              <path stroke-linecap="round" stroke-linejoin="round" fill-opacity="0" stroke-opacity="1"
                stroke-width="9.632"
                d=" M23.243000030517578,14.473999977111816 C23.243000030517578,14.473999977111816 -23.243000030517578,14.473999977111816 -23.243000030517578,14.473999977111816 C-23.243000030517578,14.473999977111816 -23.243000030517578,-14.473999977111816 -23.243000030517578,-14.473999977111816 C-23.243000030517578,-14.473999977111816 23.243000030517578,-14.473999977111816 23.243000030517578,-14.473999977111816 C23.243000030517578,-14.473999977111816 23.243000030517578,14.473999977111816 23.243000030517578,14.473999977111816z">
              </path>
            </g>
          </g>
          <g style="display: block;" transform="matrix(1,0,0,1,287.23101806640625,184.5260009765625)" opacity="1">
            <g opacity="1" transform="matrix(1,0,0,1,0,0)">
              <path stroke-linecap="round" stroke-linejoin="round" fill-opacity="0" stroke-opacity="1"
                stroke-width="9.632"
                d=" M23.243000030517578,14.473999977111816 C23.243000030517578,14.473999977111816 -23.243000030517578,14.473999977111816 -23.243000030517578,14.473999977111816 C-23.243000030517578,14.473999977111816 -23.243000030517578,-14.473999977111816 -23.243000030517578,-14.473999977111816 C-23.243000030517578,-14.473999977111816 23.243000030517578,-14.473999977111816 23.243000030517578,-14.473999977111816 C23.243000030517578,-14.473999977111816 23.243000030517578,14.473999977111816 23.243000030517578,14.473999977111816z">
              </path>
            </g>
          </g>
          <g style="display: block;" transform="matrix(1,0,0,1,250.01699829101562,181.5260009765625)" opacity="1">
            <g opacity="1" transform="matrix(1,0,0,1,0,0)">
              <path stroke-linecap="round" stroke-linejoin="round" fill-opacity="0" stroke-opacity="1"
                stroke-width="9.632"
                d=" M13.970999717712402,0 C13.970999717712402,0 -13.970999717712402,0 -13.970999717712402,0"></path>
            </g>
          </g>
        </g>
    </svg>